<svg width="128" height="128" viewBox="0 0 128 128" fill="none" xmlns="http://www.w3.org/2000/svg">
  <defs>
    <linearGradient id="logoBg" x1="18" y1="14" x2="109" y2="114" gradientUnits="userSpaceOnUse">
      <stop stop-color="#F8FBFF" />
      <stop offset="1" stop-color="#DCEBFF" />
    </linearGradient>
    <linearGradient id="logoCard" x1="32" y1="26" x2="95" y2="98" gradientUnits="userSpaceOnUse">
      <stop stop-color="#5EA2FF" />
      <stop offset="1" stop-color="#2F6FEA" />
    </linearGradient>
    <linearGradient id="logoPlay" x1="50" y1="42" x2="78" y2="76" gradientUnits="userSpaceOnUse">
      <stop stop-color="#FFFFFF" />
      <stop offset="1" stop-color="#E6F0FF" />
    </linearGradient>
    <filter id="logoShadow" x="14" y="10" width="100" height="108" filterUnits="userSpaceOnUse" color-interpolation-filters="sRGB">
      <feFlood flood-opacity="0" result="BackgroundImageFix"/>
      <feColorMatrix in="SourceAlpha" type="matrix" values="0 0 0 0 0 0 0 0 0 0 0 0 0 0 0 0 0 0 127 0" result="hardAlpha"/>
      <feOffset dy="8"/>
      <feGaussianBlur stdDeviation="8"/>
      <feColorMatrix type="matrix" values="0 0 0 0 0.247059 0 0 0 0 0.494118 0 0 0 0 0.905882 0 0 0 0.18 0"/>
      <feBlend mode="normal" in2="BackgroundImageFix" result="effect1_dropShadow_1_1"/>
      <feBlend mode="normal" in="SourceGraphic" in2="effect1_dropShadow_1_1" result="shape"/>
    </filter>
  </defs>

  <rect x="10" y="10" width="108" height="108" rx="30" fill="url(#logoBg)"/>
  <circle cx="28" cy="28" r="18" fill="#FFFFFF" fill-opacity="0.74"/>
  <circle cx="103" cy="105" r="20" fill="#BFDBFE" fill-opacity="0.65"/>

  <g filter="url(#logoShadow)">
    <rect x="30" y="22" width="68" height="84" rx="24" fill="url(#logoCard)"/>
    <rect x="39" y="76" width="50" height="8" rx="4" fill="#FFFFFF" fill-opacity="0.96"/>
    <rect x="39" y="88" width="33" height="6" rx="3" fill="#D8E7FF"/>
    <rect x="77" y="88" width="12" height="6" rx="3" fill="#93C5FD"/>
    <path d="M54 47.056C54 44.6818 56.6591 43.2714 58.6264 44.6215L76.5538 56.9254C78.2722 58.1048 78.2722 60.6392 76.5538 61.8186L58.6264 74.1225C56.6591 75.4726 54 74.0622 54 71.688V47.056Z" fill="url(#logoPlay)"/>
  </g>
</svg>
